<svg width="354" height="493" viewBox="0 0 354 493" fill="none" xmlns="http://www.w3.org/2000/svg">
<path d="M293.938 230.156C306.001 229.841 317.441 224.588 325.741 215.555C334.041 206.521 338.521 194.445 338.196 181.984C337.87 169.523 332.766 157.698 324.006 149.109C315.246 140.521 303.548 135.873 291.485 136.188L292.711 183.172L293.938 230.156Z" fill="#D3C1D4"/>
<path d="M193.764 288.614C181.698 288.451 170.059 293.246 161.408 301.945C152.757 310.643 147.802 322.532 147.634 334.996C147.466 347.46 152.098 359.478 160.511 368.407C168.924 377.335 180.43 382.442 192.496 382.605L193.13 335.61L193.764 288.614Z" fill="#D3C1D4"/>
<ellipse cx="175.5" cy="80.5" rx="45.5" ry="44.5" fill="#C3E1EE"/>
<path d="M60.5623 303.515C66.4058 303.446 72.1782 302.202 77.55 299.852C82.9219 297.502 87.788 294.094 91.8704 289.821C95.9529 285.547 99.1718 280.494 101.343 274.947C103.515 269.401 104.597 263.472 104.527 257.497C104.457 251.522 103.236 245.619 100.936 240.126C98.6348 234.632 95.2985 229.655 91.1171 225.478C86.9357 221.302 81.9911 218.008 76.5658 215.785C71.1404 213.562 65.3404 212.453 59.497 212.521L60.0297 258.018L60.5623 303.515Z" fill="#C3E1EE"/>
<path d="M73.113 102.502C63.7897 102.602 54.5386 100.93 45.8879 97.5801C37.2373 94.2305 29.3564 89.2693 22.6954 82.9798C16.0344 76.6903 10.7236 69.1957 7.06629 60.9238C3.40898 52.6518 1.47676 43.7646 1.37996 34.7696L72.3758 34.0056L73.113 102.502Z" fill="#C3E1EE"/>
<path d="M190 407C190 416.324 188.228 425.556 184.786 434.171C181.343 442.785 176.298 450.612 169.937 457.205C163.576 463.798 156.025 469.027 147.714 472.595C139.403 476.164 130.496 478 121.5 478V407H190Z" fill="#C3E1EE"/>
<ellipse cx="296.5" cy="305.5" rx="45.5" ry="44.5" fill="#C3E1EE"/>
<ellipse cx="275" cy="183.5" rx="20" ry="19.5" fill="#67406C"/>
<ellipse cx="213" cy="336.5" rx="20" ry="19.5" fill="#67406C"/>
<rect x="122" y="164" width="99" height="114" rx="20" fill="#9C91DB"/>
<rect x="251" y="379" width="99" height="114" rx="20" fill="#9C91DB"/>
<rect x="248" y="13" width="106" height="87" rx="20" fill="#9C91DB"/>
<rect x="248" y="13" width="106" height="87" rx="20" fill="#9C91DB"/>
<path d="M130 157.5C130 151.525 128.81 145.608 126.498 140.088C124.187 134.568 120.798 129.552 116.527 125.327C112.255 121.102 107.184 117.75 101.603 115.463C96.0225 113.177 90.0408 112 84 112L84 157.5H130Z" fill="#F1B1A4"/>
<path d="M10.3087 359.909C10.2682 367.251 11.8397 374.53 14.9335 381.331C18.0273 388.131 22.5828 394.32 28.34 399.544C34.0972 404.767 40.9432 408.924 48.4873 411.775C56.0313 414.627 64.1256 416.117 72.308 416.163L72.6167 360.253L10.3087 359.909Z" fill="#F1B1A4"/>
</svg>
